<?xml version="1.0" encoding="utf-8"?>
<!-- Generator: Adobe Illustrator 26.0.3, SVG Export Plug-In . SVG Version: 6.00 Build 0)  -->
<svg version="1.1" id="Layer_1" xmlns="http://www.w3.org/2000/svg" xmlns:xlink="http://www.w3.org/1999/xlink" x="0px" y="0px"
	 viewBox="0 0 50 50" style="enable-background:new 0 0 50 50;" xml:space="preserve">
<style type="text/css">
	.st0{fill:#737C33;}
</style>
<g>
	<path class="st0" d="M24.93,19.37c-3.14,0-5.7,2.56-5.7,5.7s2.56,5.7,5.7,5.7s5.7-2.56,5.7-5.7S28.07,19.37,24.93,19.37z"/>
	<path class="st0" d="M38.23,15.02c-0.32-0.79-0.69-1.37-1.27-1.95c-0.61-0.61-1.16-0.98-1.95-1.27c-0.61-0.24-1.5-0.5-3.17-0.58
		c-1.79-0.08-2.35-0.11-6.89-0.11c-4.56,0-5.09,0.03-6.89,0.11c-1.66,0.08-2.56,0.34-3.17,0.58c-0.79,0.32-1.37,0.69-1.95,1.27
		s-0.98,1.16-1.27,1.95c-0.24,0.61-0.5,1.5-0.58,3.17C11.03,19.98,11,20.53,11,25.07c0,4.56,0.03,5.09,0.11,6.91
		c0.08,1.66,0.34,2.56,0.58,3.17c0.32,0.79,0.69,1.37,1.27,1.95c0.58,0.58,1.16,0.98,1.95,1.27c0.61,0.24,1.5,0.5,3.17,0.58
		c1.79,0.08,2.35,0.11,6.89,0.11c4.56,0,5.09-0.03,6.89-0.11c1.66-0.08,2.56-0.34,3.17-0.58c0.79-0.32,1.37-0.69,1.95-1.27
		c0.61-0.61,0.98-1.16,1.27-1.95c0.24-0.61,0.5-1.5,0.58-3.17c0.08-1.79,0.11-2.35,0.11-6.89c0-4.56-0.03-5.09-0.11-6.89
		C38.75,16.52,38.46,15.6,38.23,15.02z M24.93,33.85c-4.85,0-8.76-3.93-8.76-8.76s3.93-8.76,8.76-8.76c4.85,0,8.76,3.93,8.76,8.76
		S29.76,33.85,24.93,33.85z M34.03,18c-1.13,0-2.06-0.92-2.06-2.06c0-1.13,0.92-2.06,2.06-2.06c1.13,0,2.06,0.92,2.06,2.06
		C36.09,17.1,35.17,18,34.03,18z"/>
	<path class="st0" d="M24.93,0.14C11.16,0.14,0,11.3,0,25.07S11.16,50,24.93,50s24.93-11.16,24.93-24.93S38.7,0.14,24.93,0.14z
		 M41.89,32.11c-0.08,1.82-0.37,3.06-0.79,4.14c-0.45,1.13-1.03,2.08-1.98,3.03c-0.95,0.95-1.9,1.53-3.03,1.98
		c-1.08,0.42-2.32,0.71-4.14,0.79c-1.82,0.08-2.4,0.11-7.04,0.11s-5.22-0.03-7.04-0.11c-1.82-0.08-3.06-0.37-4.14-0.79
		c-1.13-0.45-2.08-1.03-3.03-1.98s-1.53-1.9-1.98-3.03c-0.42-1.08-0.71-2.32-0.79-4.14c-0.08-1.82-0.11-2.4-0.11-7.04
		s0.03-5.22,0.11-7.04c0.08-1.82,0.37-3.06,0.79-4.14c0.45-1.13,1.03-2.08,1.98-3.03c0.95-0.95,1.9-1.53,3.03-1.98
		c1.08-0.42,2.32-0.71,4.14-0.79c1.82-0.08,2.4-0.11,7.04-0.11S30.13,8,31.95,8.08c1.82,0.08,3.06,0.37,4.14,0.79
		c1.13,0.45,2.08,1.03,3.03,1.98c0.95,0.95,1.53,1.9,1.98,3.03c0.42,1.08,0.71,2.32,0.79,4.14S42,20.43,42,25.07
		C42,29.71,41.97,30.29,41.89,32.11z"/>
</g>
</svg>
