<?xml version="1.0" encoding="utf-8"?>
<!-- Generator: Adobe Illustrator 26.0.3, SVG Export Plug-In . SVG Version: 6.00 Build 0)  -->
<svg version="1.1" id="Layer_1" xmlns="http://www.w3.org/2000/svg" xmlns:xlink="http://www.w3.org/1999/xlink" x="0px" y="0px"
	 viewBox="0 0 50 50" style="enable-background:new 0 0 50 50;" xml:space="preserve">
<style type="text/css">
	.st0{fill:none;}
	.st1{fill:#747C33;}
</style>
<path class="st0" d="M58.83-11.05v-9.5h-9.5C54.58-20.55,58.83-16.3,58.83-11.05z"/>
<path class="st0" d="M39.83-11.05c0-5.25,4.26-9.5,9.5-9.5h-9.5v19.01h9.5C44.08-1.55,39.83-5.8,39.83-11.05z"/>
<path class="st0" d="M49.33-1.55h9.5v-9.5C58.83-5.8,54.58-1.55,49.33-1.55z"/>
<path class="st1" d="M49.81,25.12L49.81,25.12c0-13.76-11.17-24.93-24.9-24.93C11.14,0.19,0,11.36,0,25.1C0,38.86,11.17,50,24.9,50
	C38.64,50.03,49.81,38.88,49.81,25.12z M39.61,22.95c-2.78,0.21-5.51-0.71-7.6-2.57v11.4c0,5.56-4.59,10.09-10.22,10.09
	c-2.94,0-5.56-1.26-7.45-3.2c-1.68-1.81-2.73-4.25-2.73-6.89c0-5.51,4.38-10.01,9.96-10.17h0.21c0.5,0,0.97,0.08,1.39,0.13v5.56
	c-0.42-0.13-0.92-0.21-1.39-0.21c-2.57,0-4.67,2.1-4.67,4.67c0,0.97,0.29,1.94,0.84,2.73c0.89,1.18,2.31,1.94,3.83,1.94
	c2.65,0,4.74-2.1,4.74-4.67v-8.97V9.84h3.96h1.52c-0.08,1.89,0.71,3.83,2.02,5.3c1.1,1.26,2.44,2.1,3.96,2.31
	c0.5,0.13,1.05,0.13,1.6,0v5.51H39.61z"/>
</svg>
